<?xml version="1.0" encoding="utf-8"?>
<!-- Generator: Adobe Illustrator 27.2.0, SVG Export Plug-In . SVG Version: 6.00 Build 0)  -->
<svg version="1.1" xmlns="http://www.w3.org/2000/svg" xmlns:xlink="http://www.w3.org/1999/xlink" x="0px" y="0px"
	 viewBox="0 0 792 612" style="enable-background:new 0 0 792 612;" xml:space="preserve">
<style type="text/css">
	.st0{fill:#FFFFFF;stroke:#CCCCCC;stroke-width:3;stroke-miterlimit:10;}
	.st1{fill:#CCCCCC;}
	.st2{font-family:'Lato-Bold';}
	.st3{font-size:12px;}
	.st4{fill:#797979;}
	.st5{fill:#99CCFF;}
	.st6{font-family:'Lato-Regular';}
	.st7{font-size:9px;}
	.st8{fill:#FFCC99;}
	.st9{fill:#FFFF99;}
	.st10{opacity:0.8;}
	.st11{fill:#FFCCFF;}
	.st12{fill:#99FFCC;}
	.st13{fill:#CC99FF;}
	.st14{fill:#6666FF;}
	.st15{font-family:'Courier';}
	.st16{fill:#ACEFED;}
	.st17{fill-rule:evenodd;clip-rule:evenodd;fill:#CCCCCC;}
</style>
<g id="encode-search_box">
	<rect x="26.5" y="282.5" class="st0" width="734.5" height="305"/>
	<rect x="26.5" y="17.5" class="st0" width="734.5" height="236"/>
	<g>
		<rect x="39" y="10" class="st1" width="83" height="29"/>
		<text transform="matrix(1.0072 0 0 1 60.985 27.9923)" class="st2 st3">encode</text>
	</g>
	<g>
		<rect x="39" y="268" class="st1" width="83" height="29"/>
		<text transform="matrix(1.0072 0 0 1 63.1363 285.9923)" class="st2 st3">search</text>
	</g>
</g>
<g id="arrows">
	<g>
		<g>
			<g>
				<polygon class="st4" points="627.8,64 611.8,79.8 607.3,79.8 621.7,65.6 241.1,63.6 241.1,60.4 621.7,62.4 607.5,48 612,48 				
					"/>
			</g>
		</g>
	</g>
	<g>
		<g>
			<g>
				<polygon class="st4" points="627.8,161 611.8,176.8 607.3,176.8 621.7,162.6 241.1,160.6 241.1,157.4 621.7,159.4 607.5,145 
					612,145 				"/>
			</g>
		</g>
	</g>
	<g>
		<g>
			<g>
				<polygon class="st4" points="627.8,212 611.8,227.8 607.3,227.8 621.7,213.6 241.1,211.6 241.1,208.4 621.7,210.4 607.5,196 
					612,196 				"/>
			</g>
		</g>
	</g>
	<g>
		<g>
			<g>
				<polygon class="st4" points="627.8,332 611.8,347.8 607.3,347.8 621.7,333.6 153.9,331.6 153.9,328.4 621.7,330.4 607.5,316 
					612,316.1 				"/>
			</g>
		</g>
	</g>
	<g>
		<g>
			<g>
				<polygon class="st4" points="627.8,392 611.8,407.8 607.3,407.8 621.7,393.6 153.9,391.6 153.9,388.4 621.7,390.4 607.5,376 
					612,376.1 				"/>
			</g>
		</g>
	</g>
	<g>
		<g>
			<g>
				<polygon class="st4" points="627.8,456 611.8,471.8 607.3,471.8 621.7,457.6 153.9,455.6 153.9,452.4 621.7,454.4 607.5,440 
					612,440.1 				"/>
			</g>
		</g>
	</g>
	<g>
		<g>
			<g>
				<polygon class="st4" points="627.8,539 611.8,554.8 607.3,554.8 621.7,540.6 153.9,538.6 153.9,535.4 621.7,537.4 607.5,523 
					612,523.1 				"/>
			</g>
		</g>
	</g>
</g>
<g id="components">
	<path class="st1" d="M284,240.9C284,240.8,284,240.8,284,240.9C283.9,240.8,284,240.8,284,240.9z"/>
	<g>
		<g>
			<path class="st5" d="M226.4,102.5L226.4,102.5L226.4,102.5c0-0.2,0-42.8,0-43.4V48.5c-0.1,0.1-0.3,0.2-0.4,0.2
				c-1.4,0.8-3,1.5-4.5,2c-0.2,0.1-0.4,0.1-0.6,0.2c-0.1,0-0.1,0-0.2,0.1c-0.1,0.1-0.3,0.1-0.4,0.1c-3.4,1.2-7,1.9-10.6,2.5
				c-0.2,0-0.4,0.1-0.6,0.1c-0.1,0-0.3,0-0.4,0.1c-1.9,0.3-3.8,0.4-5.6,0.6c-0.2,0-0.3,0-0.5,0c-0.1,0-0.3,0-0.4,0
				c-0.2,0-0.3,0-0.5,0c-4.5,0.3-9,0.4-13.5,0.1c-1.2-0.1-2.4-0.2-3.6-0.3c-0.2,0-0.5,0-0.7-0.1c-0.2,0-0.5,0-0.7-0.1
				c-0.2,0-0.5-0.1-0.7-0.1c-0.4,0-0.7-0.1-1.1-0.1c-5.6-0.7-11.2-1.7-16.5-3.9c-1.1-0.5-2.2-1-3.3-1.6v11.1c0,0.5,0,42,0,42.4
				c0,0.1,0,0.2,0,0.3h0c0-0.1,0-0.1,0-0.2c0,0.1,0,0.1,0,0.2c0,0.1,0,0.2,0,0.2v0c0,0,0,0,0,0c0,0,0,0,0,0c0,0,0,0,0,0
				c0,0.1,0,0.1,0,0.2c0,0,0-0.1,0-0.1v0c0.1,0.1,0.1,0.3,0.2,0.4c0-0.1-0.1-0.2-0.1-0.3c0.1,0.1,0.1,0.3,0.2,0.4
				c0,0.1,0.1,0.1,0.1,0.2c0.2,0.2,0.4,0.5,0.6,0.7c0.1,0.1,0.2,0.2,0.3,0.3c0,0,0,0,0.1,0c1.2,0.8,2.4,1.5,3.8,2.1
				c4.3,1.8,8.9,2.7,13.5,3.3c-0.1,0-0.1,0-0.2,0c0.2,0,0.4,0.1,0.7,0.1c-0.1,0-0.3,0-0.4-0.1c1.9,0.2,3.7,0.4,5.6,0.6
				c7.1,0.5,14.3,0.4,21.3-0.6c4.6-0.6,9.3-1.6,13.6-3.4c1.3-0.6,2.6-1.3,3.8-2.1c0,0,0,0,0,0c0.1-0.1,0.3-0.2,0.4-0.3
				c0.2-0.2,0.4-0.4,0.6-0.6c0.1-0.1,0.1-0.1,0.1-0.2C226.2,103,226.4,102.7,226.4,102.5C226.4,102.6,226.4,102.6,226.4,102.5
				c0,0,0-0.1,0.1-0.1C226.4,102.5,226.4,102.5,226.4,102.5z"/>
			<path class="st5" d="M226.4,41.1C226.4,41.2,226.4,41.2,226.4,41.1c0,0.1,0,0.1,0,0.1v0.1v0.1c0,0.1-0.1,0.2-0.1,0.3
				c-0.1,0.1-0.1,0.3-0.2,0.4c0,0.1-0.1,0.1-0.1,0.2c-0.2,0.2-0.4,0.4-0.6,0.6c-0.1,0.1-0.2,0.2-0.4,0.3c0,0,0,0,0,0
				c-1.2,0.8-2.4,1.5-3.7,2.1c-4.3,1.8-9,2.7-13.7,3.4c-7.1,0.9-14.2,1.1-21.3,0.6c-1.9-0.1-3.7-0.3-5.6-0.6c0.1,0,0.3,0,0.4,0.1
				c-0.2,0-0.4-0.1-0.6-0.1c0,0,0.1,0,0.1,0c-4.6-0.6-9.2-1.6-13.5-3.4c-1.3-0.6-2.6-1.2-3.7-2.1c0,0,0,0-0.1,0
				c-0.1-0.1-0.2-0.2-0.3-0.3c-0.2-0.2-0.4-0.4-0.6-0.7c0-0.1-0.1-0.1-0.1-0.2c-0.1-0.1-0.2-0.3-0.2-0.4c0,0.1,0.1,0.2,0.1,0.3
				c-0.1-0.1-0.1-0.3-0.2-0.4c0,0.1,0,0.1,0,0.2c0-0.1,0-0.1,0-0.2c0,0,0,0,0,0c0,0,0-0.1-0.1-0.1c0,0,0,0.1,0,0.1c0,0,0-0.1,0-0.1
				c0-0.1,0-0.1,0-0.1c0-0.1,0-0.1,0-0.2c0,0.1,0,0.1,0,0.2c0-0.1,0-0.1,0-0.2c0,0,0,0,0-0.1c0,0,0,0,0,0.1c0,0,0,0,0-0.1
				c0,0,0,0,0-0.1c0-0.1,0-0.1,0-0.2c0,0,0,0.1,0,0.1c0.1-0.2,0.1-0.3,0.2-0.5c0,0.1-0.1,0.2-0.1,0.3c0.1-0.1,0.2-0.3,0.2-0.4
				c0,0-0.1,0-0.1,0.1c0,0,0.4-0.5,0.2-0.3c0,0.1-0.1,0.1-0.1,0.2c0,0,0,0,0,0c0.1-0.1,0.2-0.2,0.2-0.3c0.2-0.2,0.4-0.5,0.7-0.7
				c0.1-0.1,0.2-0.2,0.4-0.3c0,0,0.1,0,0.1-0.1c1.1-0.8,2.3-1.4,3.6-2c4.3-1.8,8.9-2.7,13.5-3.4c-0.1,0-0.1,0-0.2,0
				c0.2,0,0.4-0.1,0.7-0.1c-0.1,0-0.3,0-0.4,0.1c7.1-0.9,14.3-1.1,21.5-0.6c1.9,0.1,3.8,0.3,5.7,0.6c-0.2,0-0.3,0-0.5-0.1
				c0.2,0,0.4,0.1,0.7,0.1c-0.1,0-0.1,0-0.2,0c4.6,0.6,9.2,1.6,13.5,3.3c1.2,0.5,2.5,1.2,3.6,2c0,0,0.1,0.1,0.1,0.1
				c0.1,0.1,0.2,0.2,0.3,0.2c0.2,0.2,0.5,0.4,0.7,0.7c0.1,0.1,0.1,0.1,0.1,0.2c0,0,0,0.1,0.1,0.1c0.1,0.2,0.2,0.3,0.3,0.5
				c0-0.1-0.1-0.2-0.1-0.3C226.2,40.8,226.3,40.9,226.4,41.1c-0.1-0.1-0.1-0.2-0.1-0.2C226.4,41,226.4,41,226.4,41.1
				C226.4,41.1,226.4,41.1,226.4,41.1L226.4,41.1z"/>
		</g>
		<g>
			<text transform="matrix(1.0072 0 0 1 179.394 79.9946)" class="st2 st3">coda</text>
			<text transform="matrix(1.0072 0 0 1 179.8838 90.5811)" class="st6 st7">faq db</text>
		</g>
	</g>
	<g>
		<path class="st1" d="M668.8,71.9C668.8,71.8,668.8,71.8,668.8,71.9C668.8,71.8,668.8,71.8,668.8,71.9z"/>
		<g>
			<path class="st8" d="M701.1,102.5L701.1,102.5L701.1,102.5c0-0.2,0-42.8,0-43.4V48.5c-0.1,0.1-0.3,0.2-0.4,0.2
				c-1.4,0.8-3,1.5-4.5,2c-0.2,0.1-0.4,0.1-0.6,0.2c-0.1,0-0.1,0-0.2,0.1c-0.1,0.1-0.3,0.1-0.4,0.1c-3.4,1.2-7,1.9-10.6,2.5
				c-0.2,0-0.4,0.1-0.6,0.1c-0.1,0-0.3,0-0.4,0.1c-1.9,0.3-3.8,0.4-5.6,0.6c-0.2,0-0.3,0-0.5,0c-0.1,0-0.3,0-0.4,0
				c-0.2,0-0.3,0-0.5,0c-4.5,0.3-9,0.4-13.5,0.1c-1.2-0.1-2.4-0.2-3.6-0.3c-0.2,0-0.5,0-0.7-0.1c-0.2,0-0.5,0-0.7-0.1
				c-0.2,0-0.5-0.1-0.7-0.1c-0.4,0-0.7-0.1-1.1-0.1c-5.6-0.7-11.2-1.7-16.5-3.9c-1.1-0.5-2.2-1-3.3-1.6v11.1c0,0.5,0,42,0,42.4
				c0,0.1,0,0.2,0,0.3h0c0-0.1,0-0.1,0-0.2c0,0.1,0,0.1,0,0.2c0,0.1,0,0.2,0,0.2v0c0,0,0,0,0,0c0,0,0,0,0,0c0,0,0,0,0,0
				c0,0.1,0,0.1,0,0.2c0,0,0-0.1,0-0.1v0c0.1,0.1,0.1,0.3,0.2,0.4c0-0.1-0.1-0.2-0.1-0.3c0.1,0.1,0.1,0.3,0.2,0.4
				c0,0.1,0.1,0.1,0.1,0.2c0.2,0.2,0.4,0.5,0.6,0.7c0.1,0.1,0.2,0.2,0.3,0.3c0,0,0,0,0.1,0c1.2,0.8,2.4,1.5,3.8,2.1
				c4.3,1.8,8.9,2.7,13.5,3.3c-0.1,0-0.1,0-0.2,0c0.2,0,0.4,0.1,0.7,0.1c-0.1,0-0.3,0-0.4-0.1c1.9,0.2,3.7,0.4,5.6,0.6
				c7.1,0.5,14.3,0.4,21.3-0.6c4.6-0.6,9.3-1.6,13.6-3.4c1.3-0.6,2.6-1.3,3.8-2.1c0,0,0,0,0,0c0.1-0.1,0.3-0.2,0.4-0.3
				c0.2-0.2,0.4-0.4,0.6-0.6c0.1-0.1,0.1-0.1,0.1-0.2C700.8,103,701.1,102.7,701.1,102.5C701.1,102.6,701.1,102.6,701.1,102.5
				c0,0,0-0.1,0.1-0.1C701.1,102.5,701.1,102.5,701.1,102.5z"/>
			<path class="st8" d="M701.1,41.1C701.1,41.2,701.1,41.2,701.1,41.1c0,0.1,0,0.1,0,0.1v0.1v0.1c0,0.1-0.1,0.2-0.1,0.3
				c-0.1,0.1-0.1,0.3-0.2,0.4c0,0.1-0.1,0.1-0.1,0.2c-0.2,0.2-0.4,0.4-0.6,0.6c-0.1,0.1-0.2,0.2-0.4,0.3c0,0,0,0,0,0
				c-1.2,0.8-2.4,1.5-3.7,2.1c-4.3,1.8-9,2.7-13.7,3.4c-7.1,0.9-14.2,1.1-21.3,0.6c-1.9-0.1-3.7-0.3-5.6-0.6c0.1,0,0.3,0,0.4,0.1
				c-0.2,0-0.4-0.1-0.6-0.1c0,0,0.1,0,0.1,0c-4.6-0.6-9.2-1.6-13.5-3.4c-1.3-0.6-2.6-1.2-3.7-2.1c0,0,0,0-0.1,0
				c-0.1-0.1-0.2-0.2-0.3-0.3c-0.2-0.2-0.4-0.4-0.6-0.7c0-0.1-0.1-0.1-0.1-0.2c-0.1-0.1-0.2-0.3-0.2-0.4c0,0.1,0.1,0.2,0.1,0.3
				c-0.1-0.1-0.1-0.3-0.2-0.4c0,0.1,0,0.1,0,0.2c0-0.1,0-0.1,0-0.2c0,0,0,0,0,0c0,0,0-0.1-0.1-0.1c0,0,0,0.1,0,0.1c0,0,0-0.1,0-0.1
				c0-0.1,0-0.1,0-0.1c0-0.1,0-0.1,0-0.2c0,0.1,0,0.1,0,0.2c0-0.1,0-0.1,0-0.2c0,0,0,0,0-0.1c0,0,0,0,0,0.1c0,0,0,0,0-0.1
				c0,0,0,0,0-0.1c0-0.1,0-0.1,0-0.2c0,0,0,0.1,0,0.1c0.1-0.2,0.1-0.3,0.2-0.5c0,0.1-0.1,0.2-0.1,0.3c0.1-0.1,0.2-0.3,0.2-0.4
				c0,0-0.1,0-0.1,0.1c0,0,0.4-0.5,0.2-0.3c0,0.1-0.1,0.1-0.1,0.2c0,0,0,0,0,0c0.1-0.1,0.2-0.2,0.2-0.3c0.2-0.2,0.4-0.5,0.7-0.7
				c0.1-0.1,0.2-0.2,0.4-0.3c0,0,0.1,0,0.1-0.1c1.1-0.8,2.3-1.4,3.6-2c4.3-1.8,8.9-2.7,13.5-3.4c-0.1,0-0.1,0-0.2,0
				c0.2,0,0.4-0.1,0.7-0.1c-0.1,0-0.3,0-0.4,0.1c7.1-0.9,14.3-1.1,21.5-0.6c1.9,0.1,3.8,0.3,5.7,0.6c-0.2,0-0.3,0-0.5-0.1
				c0.2,0,0.4,0.1,0.7,0.1c-0.1,0-0.1,0-0.2,0c4.6,0.6,9.2,1.6,13.5,3.3c1.2,0.5,2.5,1.2,3.6,2c0,0,0.1,0.1,0.1,0.1
				c0.1,0.1,0.2,0.2,0.3,0.2c0.2,0.2,0.5,0.4,0.7,0.7c0.1,0.1,0.1,0.1,0.1,0.2c0,0,0,0.1,0.1,0.1c0.1,0.2,0.2,0.3,0.3,0.5
				c0-0.1-0.1-0.2-0.1-0.3C700.9,40.8,701,40.9,701.1,41.1C701,41,701,41,701,40.9C701,41,701,41,701.1,41.1
				C701.1,41.1,701.1,41.1,701.1,41.1L701.1,41.1z"/>
		</g>
		<g>
			<text transform="matrix(1 0 0 1 644.4121 79.9948)" class="st2 st3">pinecone</text>
			<text transform="matrix(1 0 0 1 650.0195 90.5808)" class="st6 st7">vector db</text>
		</g>
	</g>
	<g>
		<path class="st1" d="M668.8,183.4C668.8,183.4,668.8,183.3,668.8,183.4C668.8,183.3,668.8,183.4,668.8,183.4z"/>
		<g>
			<path class="st8" d="M701.1,214.1L701.1,214.1L701.1,214.1c0-0.2,0-42.8,0-43.4V160c-0.1,0.1-0.3,0.2-0.4,0.2
				c-1.4,0.8-3,1.5-4.5,2c-0.2,0.1-0.4,0.1-0.6,0.2c-0.1,0-0.1,0-0.2,0.1c-0.1,0.1-0.3,0.1-0.4,0.1c-3.4,1.2-7,1.9-10.6,2.5
				c-0.2,0-0.4,0.1-0.6,0.1c-0.1,0-0.3,0-0.4,0.1c-1.9,0.3-3.8,0.4-5.6,0.6c-0.2,0-0.3,0-0.5,0c-0.1,0-0.3,0-0.4,0
				c-0.2,0-0.3,0-0.5,0c-4.5,0.3-9,0.4-13.5,0.1c-1.2-0.1-2.4-0.2-3.6-0.3c-0.2,0-0.5,0-0.7-0.1c-0.2,0-0.5,0-0.7-0.1
				c-0.2,0-0.5-0.1-0.7-0.1c-0.4,0-0.7-0.1-1.1-0.1c-5.6-0.7-11.2-1.7-16.5-3.9c-1.1-0.5-2.2-1-3.3-1.6v11.1c0,0.5,0,42,0,42.4
				c0,0.1,0,0.2,0,0.3h0c0-0.1,0-0.1,0-0.2c0,0.1,0,0.1,0,0.2c0,0.1,0,0.2,0,0.2v0c0,0,0,0,0,0c0,0,0,0,0,0c0,0,0,0,0,0
				c0,0.1,0,0.1,0,0.2c0,0,0-0.1,0-0.1v0c0.1,0.1,0.1,0.3,0.2,0.4c0-0.1-0.1-0.2-0.1-0.3c0.1,0.1,0.1,0.3,0.2,0.4
				c0,0.1,0.1,0.1,0.1,0.2c0.2,0.2,0.4,0.5,0.6,0.7c0.1,0.1,0.2,0.2,0.3,0.3c0,0,0,0,0.1,0c1.2,0.8,2.4,1.5,3.8,2.1
				c4.3,1.8,8.9,2.7,13.5,3.3c-0.1,0-0.1,0-0.2,0c0.2,0,0.4,0.1,0.7,0.1c-0.1,0-0.3,0-0.4-0.1c1.9,0.2,3.7,0.4,5.6,0.6
				c7.1,0.5,14.3,0.4,21.3-0.6c4.6-0.6,9.3-1.6,13.6-3.4c1.3-0.6,2.6-1.3,3.8-2.1c0,0,0,0,0,0c0.1-0.1,0.3-0.2,0.4-0.3
				c0.2-0.2,0.4-0.4,0.6-0.6c0.1-0.1,0.1-0.1,0.1-0.2C700.8,214.5,701.1,214.2,701.1,214.1C701.1,214.1,701.1,214.1,701.1,214.1
				c0,0,0-0.1,0.1-0.1C701.1,214,701.1,214,701.1,214.1z"/>
			<path class="st8" d="M701.1,152.7C701.1,152.7,701.1,152.7,701.1,152.7c0,0.1,0,0.1,0,0.1v0.1v0.1c0,0.1-0.1,0.2-0.1,0.3
				c-0.1,0.1-0.1,0.3-0.2,0.4c0,0.1-0.1,0.1-0.1,0.2c-0.2,0.2-0.4,0.4-0.6,0.6c-0.1,0.1-0.2,0.2-0.4,0.3c0,0,0,0,0,0
				c-1.2,0.8-2.4,1.5-3.7,2.1c-4.3,1.8-9,2.7-13.7,3.4c-7.1,0.9-14.2,1.1-21.3,0.6c-1.9-0.1-3.7-0.3-5.6-0.6c0.1,0,0.3,0,0.4,0.1
				c-0.2,0-0.4-0.1-0.6-0.1c0,0,0.1,0,0.1,0c-4.6-0.6-9.2-1.6-13.5-3.4c-1.3-0.6-2.6-1.2-3.7-2.1c0,0,0,0-0.1,0
				c-0.1-0.1-0.2-0.2-0.3-0.3c-0.2-0.2-0.4-0.4-0.6-0.7c0-0.1-0.1-0.1-0.1-0.2c-0.1-0.1-0.2-0.3-0.2-0.4c0,0.1,0.1,0.2,0.1,0.3
				c-0.1-0.1-0.1-0.3-0.2-0.4c0,0.1,0,0.1,0,0.2c0-0.1,0-0.1,0-0.2c0,0,0,0,0,0c0,0,0-0.1-0.1-0.1c0,0,0,0.1,0,0.1c0,0,0-0.1,0-0.1
				c0-0.1,0-0.1,0-0.1c0-0.1,0-0.1,0-0.2c0,0.1,0,0.1,0,0.2c0-0.1,0-0.1,0-0.2c0,0,0,0,0-0.1c0,0,0,0,0,0.1c0,0,0,0,0-0.1
				c0,0,0,0,0-0.1c0-0.1,0-0.1,0-0.2c0,0,0,0.1,0,0.1c0.1-0.2,0.1-0.3,0.2-0.5c0,0.1-0.1,0.2-0.1,0.3c0.1-0.1,0.2-0.3,0.2-0.4
				c0,0-0.1,0-0.1,0.1c0,0,0.4-0.5,0.2-0.3c0,0.1-0.1,0.1-0.1,0.2c0,0,0,0,0,0c0.1-0.1,0.2-0.2,0.2-0.3c0.2-0.2,0.4-0.5,0.7-0.7
				c0.1-0.1,0.2-0.2,0.4-0.3c0,0,0.1,0,0.1-0.1c1.1-0.8,2.3-1.4,3.6-2c4.3-1.8,8.9-2.7,13.5-3.4c-0.1,0-0.1,0-0.2,0
				c0.2,0,0.4-0.1,0.7-0.1c-0.1,0-0.3,0-0.4,0.1c7.1-0.9,14.3-1.1,21.5-0.6c1.9,0.1,3.8,0.3,5.7,0.6c-0.2,0-0.3,0-0.5-0.1
				c0.2,0,0.4,0.1,0.7,0.1c-0.1,0-0.1,0-0.2,0c4.6,0.6,9.2,1.6,13.5,3.3c1.2,0.5,2.5,1.2,3.6,2c0,0,0.1,0.1,0.1,0.1
				c0.1,0.1,0.2,0.2,0.3,0.2c0.2,0.2,0.5,0.4,0.7,0.7c0.1,0.1,0.1,0.1,0.1,0.2c0,0,0,0.1,0.1,0.1c0.1,0.2,0.2,0.3,0.3,0.5
				c0-0.1-0.1-0.2-0.1-0.3C700.9,152.3,701,152.4,701.1,152.7c-0.1-0.1-0.1-0.2-0.1-0.2C701,152.5,701,152.6,701.1,152.7
				C701.1,152.6,701.1,152.7,701.1,152.7L701.1,152.7z"/>
		</g>
		<g>
			<text transform="matrix(1 0 0 1 644.4121 191.5178)" class="st2 st3">pinecone</text>
			<text transform="matrix(1 0 0 1 650.0195 202.1037)" class="st6 st7">vector db</text>
		</g>
	</g>
	<g>
		<rect x="296" y="42" class="st9" width="135" height="49"/>
		<path class="st10" d="M324.7,54.9c-0.9,0-1.6,0.7-1.6,1.6s0.7,1.6,1.6,1.6c0.9,0,1.6-0.7,1.6-1.6S325.5,54.9,324.7,54.9z
			 M324.7,61.4c-0.9,0-1.6,0.7-1.6,1.6c0,0.9,0.7,1.6,1.6,1.6c0.9,0,1.6-0.7,1.6-1.6C326.2,62.1,325.5,61.4,324.7,61.4z M315.9,61.4
			c-0.9,0-1.6,0.7-1.6,1.6c0,0.9,0.7,1.6,1.6,1.6c0.9,0,1.6-0.7,1.6-1.6C317.4,62.1,316.7,61.4,315.9,61.4z M322.9,58.5l-4.6,3.4
			c0.2,0.3,0.2,0.7,0.2,1.1c0,0.4-0.1,0.8-0.2,1.1l2.1,1.5l2.1-1.5c-0.2-0.3-0.2-0.7-0.2-1.1c0-1.5,1.2-2.7,2.6-2.7
			c1.4,0,2.6,1.2,2.6,2.7c0,0.1,0,0.3,0,0.4l4,1.5c0-0.1,0.1-0.2,0.2-0.3l-5.3-5.8c-0.4,0.3-0.9,0.4-1.4,0.4
			C324,59.2,323.3,58.9,322.9,58.5z M333.5,64.6c-0.9,0-1.6,0.7-1.6,1.6c0,0.9,0.7,1.6,1.6,1.6s1.6-0.7,1.6-1.6
			C335.1,65.3,334.4,64.6,333.5,64.6z M324.7,65.6c-0.7,0-1.3-0.3-1.8-0.8l-1.8,1.3l1.8,1.3c0.5-0.5,1.1-0.8,1.8-0.8
			c1,0,1.8,0.5,2.3,1.3l4-1.5c0-0.1,0-0.3,0-0.4s0-0.3,0-0.4l-4-1.5C326.5,65.1,325.6,65.6,324.7,65.6z M324.7,67.8
			c-0.9,0-1.6,0.7-1.6,1.6c0,0.9,0.7,1.6,1.6,1.6c0.9,0,1.6-0.7,1.6-1.6C326.2,68.5,325.5,67.8,324.7,67.8z M315.9,67.8
			c-0.9,0-1.6,0.7-1.6,1.6c0,0.9,0.7,1.6,1.6,1.6c0.9,0,1.6-0.7,1.6-1.6C317.4,68.5,316.7,67.8,315.9,67.8z M320.3,66.8l-2.1,1.5
			c0.2,0.3,0.2,0.7,0.2,1.1c0,0.4-0.1,0.8-0.2,1.1l4.6,3.4c0.5-0.5,1.1-0.8,1.8-0.8c0.5,0,1,0.2,1.4,0.4l5.3-5.8
			c-0.1-0.1-0.1-0.2-0.2-0.3l-4,1.5c0,0.1,0,0.3,0,0.4c0,1.5-1.2,2.7-2.6,2.7c-1.4,0-2.6-1.2-2.6-2.7c0-0.4,0.1-0.8,0.2-1.1
			L320.3,66.8z M324.7,74.2c-0.9,0-1.6,0.7-1.6,1.6s0.7,1.6,1.6,1.6c0.9,0,1.6-0.7,1.6-1.6S325.5,74.2,324.7,74.2z M324.7,53.9
			c1.4,0,2.6,1.2,2.6,2.7c0,0.6-0.2,1.1-0.5,1.6l5.3,5.8c0.4-0.3,0.9-0.4,1.4-0.4c1.4,0,2.6,1.2,2.6,2.7s-1.2,2.7-2.6,2.7
			c-0.5,0-1-0.2-1.4-0.4l-5.3,5.8c0.3,0.4,0.5,1,0.5,1.6c0,1.5-1.2,2.7-2.6,2.7c-1.4,0-2.6-1.2-2.6-2.7c0-0.4,0.1-0.8,0.2-1.1
			l-4.6-3.4c-0.5,0.5-1.1,0.8-1.8,0.8c-1.4,0-2.6-1.2-2.6-2.7s1.2-2.7,2.6-2.7c0.7,0,1.3,0.3,1.8,0.8l1.8-1.3l-1.8-1.3
			c-0.5,0.5-1.1,0.8-1.8,0.8c-1.4,0-2.6-1.2-2.6-2.7c0-1.5,1.2-2.7,2.6-2.7c0.7,0,1.3,0.3,1.8,0.8l4.6-3.4c-0.2-0.3-0.2-0.7-0.2-1.1
			C322.1,55.1,323.2,53.9,324.7,53.9z"/>
		<g>
			<text transform="matrix(1.0072 0 0 1 350.1465 65.845)" class="st2 st3">retriever</text>
			<text transform="matrix(1.0072 0 0 1 342.6977 76.4309)" class="st6 st7">multi-qa-mpnet</text>
		</g>
	</g>
	<g>
		<rect x="361" y="188" class="st9" width="135" height="49"/>
		<path class="st10" d="M389.7,200.9c-0.9,0-1.6,0.7-1.6,1.6c0,0.9,0.7,1.6,1.6,1.6c0.9,0,1.6-0.7,1.6-1.6
			C391.2,201.7,390.5,200.9,389.7,200.9z M389.7,207.4c-0.9,0-1.6,0.7-1.6,1.6c0,0.9,0.7,1.6,1.6,1.6c0.9,0,1.6-0.7,1.6-1.6
			C391.2,208.1,390.5,207.4,389.7,207.4z M380.9,207.4c-0.9,0-1.6,0.7-1.6,1.6c0,0.9,0.7,1.6,1.6,1.6c0.9,0,1.6-0.7,1.6-1.6
			C382.4,208.1,381.7,207.4,380.9,207.4z M387.9,204.5l-4.6,3.4c0.2,0.3,0.2,0.7,0.2,1.1c0,0.4-0.1,0.8-0.2,1.1l2.1,1.5l2.1-1.5
			c-0.2-0.3-0.2-0.7-0.2-1.1c0-1.5,1.2-2.7,2.6-2.7c1.4,0,2.6,1.2,2.6,2.7c0,0.1,0,0.3,0,0.4l4,1.5c0-0.1,0.1-0.2,0.2-0.3l-5.3-5.8
			c-0.4,0.3-0.9,0.4-1.4,0.4C389,205.2,388.3,204.9,387.9,204.5z M398.5,210.6c-0.9,0-1.6,0.7-1.6,1.6c0,0.9,0.7,1.6,1.6,1.6
			s1.6-0.7,1.6-1.6C400.1,211.3,399.4,210.6,398.5,210.6z M389.7,211.6c-0.7,0-1.3-0.3-1.8-0.8l-1.8,1.3l1.8,1.3
			c0.5-0.5,1.1-0.8,1.8-0.8c1,0,1.8,0.5,2.3,1.3l4-1.5c0-0.1,0-0.3,0-0.4c0-0.1,0-0.3,0-0.4l-4-1.5
			C391.5,211.1,390.6,211.6,389.7,211.6z M389.7,213.8c-0.9,0-1.6,0.7-1.6,1.6c0,0.9,0.7,1.6,1.6,1.6c0.9,0,1.6-0.7,1.6-1.6
			C391.2,214.5,390.5,213.8,389.7,213.8z M380.9,213.8c-0.9,0-1.6,0.7-1.6,1.6c0,0.9,0.7,1.6,1.6,1.6c0.9,0,1.6-0.7,1.6-1.6
			C382.4,214.5,381.7,213.8,380.9,213.8z M385.3,212.8l-2.1,1.5c0.2,0.3,0.2,0.7,0.2,1.1c0,0.4-0.1,0.8-0.2,1.1l4.6,3.4
			c0.5-0.5,1.1-0.8,1.8-0.8c0.5,0,1,0.2,1.4,0.4l5.3-5.8c-0.1-0.1-0.1-0.2-0.2-0.3l-4,1.5c0,0.1,0,0.3,0,0.4c0,1.5-1.2,2.7-2.6,2.7
			c-1.4,0-2.6-1.2-2.6-2.7c0-0.4,0.1-0.8,0.2-1.1L385.3,212.8z M389.7,220.2c-0.9,0-1.6,0.7-1.6,1.6c0,0.9,0.7,1.6,1.6,1.6
			c0.9,0,1.6-0.7,1.6-1.6C391.2,220.9,390.5,220.2,389.7,220.2z M389.7,199.9c1.4,0,2.6,1.2,2.6,2.7c0,0.6-0.2,1.1-0.5,1.6l5.3,5.8
			c0.4-0.3,0.9-0.4,1.4-0.4c1.4,0,2.6,1.2,2.6,2.7s-1.2,2.7-2.6,2.7c-0.5,0-1-0.2-1.4-0.4l-5.3,5.8c0.3,0.4,0.5,1,0.5,1.6
			c0,1.5-1.2,2.7-2.6,2.7c-1.4,0-2.6-1.2-2.6-2.7c0-0.4,0.1-0.8,0.2-1.1l-4.6-3.4c-0.5,0.5-1.1,0.8-1.8,0.8c-1.4,0-2.6-1.2-2.6-2.7
			s1.2-2.7,2.6-2.7c0.7,0,1.3,0.3,1.8,0.8l1.8-1.3l-1.8-1.3c-0.5,0.5-1.1,0.8-1.8,0.8c-1.4,0-2.6-1.2-2.6-2.7c0-1.5,1.2-2.7,2.6-2.7
			c0.7,0,1.3,0.3,1.8,0.8l4.6-3.4c-0.2-0.3-0.2-0.7-0.2-1.1C387.1,201.1,388.2,199.9,389.7,199.9z"/>
		<g>
			<text transform="matrix(1.0072 0 0 1 415.1465 211.845)" class="st2 st3">retriever</text>
			<text transform="matrix(1.0072 0 0 1 407.6977 222.4309)" class="st6 st7">multi-qa-mpnet</text>
		</g>
	</g>
	<g>
		<rect x="361" y="133" class="st11" width="135" height="49"/>
		<path class="st10" d="M389.7,145.9c-0.9,0-1.6,0.7-1.6,1.6c0,0.9,0.7,1.6,1.6,1.6c0.9,0,1.6-0.7,1.6-1.6
			C391.2,146.7,390.5,145.9,389.7,145.9z M389.7,152.4c-0.9,0-1.6,0.7-1.6,1.6c0,0.9,0.7,1.6,1.6,1.6c0.9,0,1.6-0.7,1.6-1.6
			C391.2,153.1,390.5,152.4,389.7,152.4z M380.9,152.4c-0.9,0-1.6,0.7-1.6,1.6c0,0.9,0.7,1.6,1.6,1.6c0.9,0,1.6-0.7,1.6-1.6
			C382.4,153.1,381.7,152.4,380.9,152.4z M387.9,149.5l-4.6,3.4c0.2,0.3,0.2,0.7,0.2,1.1c0,0.4-0.1,0.8-0.2,1.1l2.1,1.5l2.1-1.5
			c-0.2-0.3-0.2-0.7-0.2-1.1c0-1.5,1.2-2.7,2.6-2.7c1.4,0,2.6,1.2,2.6,2.7c0,0.1,0,0.3,0,0.4l4,1.5c0-0.1,0.1-0.2,0.2-0.3l-5.3-5.8
			c-0.4,0.3-0.9,0.4-1.4,0.4C389,150.2,388.3,149.9,387.9,149.5z M398.5,155.6c-0.9,0-1.6,0.7-1.6,1.6c0,0.9,0.7,1.6,1.6,1.6
			s1.6-0.7,1.6-1.6C400.1,156.3,399.4,155.6,398.5,155.6z M389.7,156.6c-0.7,0-1.3-0.3-1.8-0.8l-1.8,1.3l1.8,1.3
			c0.5-0.5,1.1-0.8,1.8-0.8c1,0,1.8,0.5,2.3,1.3l4-1.5c0-0.1,0-0.3,0-0.4c0-0.1,0-0.3,0-0.4l-4-1.5
			C391.5,156.1,390.6,156.6,389.7,156.6z M389.7,158.8c-0.9,0-1.6,0.7-1.6,1.6c0,0.9,0.7,1.6,1.6,1.6c0.9,0,1.6-0.7,1.6-1.6
			C391.2,159.5,390.5,158.8,389.7,158.8z M380.9,158.8c-0.9,0-1.6,0.7-1.6,1.6c0,0.9,0.7,1.6,1.6,1.6c0.9,0,1.6-0.7,1.6-1.6
			C382.4,159.5,381.7,158.8,380.9,158.8z M385.3,157.8l-2.1,1.5c0.2,0.3,0.2,0.7,0.2,1.1c0,0.4-0.1,0.8-0.2,1.1l4.6,3.4
			c0.5-0.5,1.1-0.8,1.8-0.8c0.5,0,1,0.2,1.4,0.4l5.3-5.8c-0.1-0.1-0.1-0.2-0.2-0.3l-4,1.5c0,0.1,0,0.3,0,0.4c0,1.5-1.2,2.7-2.6,2.7
			c-1.4,0-2.6-1.2-2.6-2.7c0-0.4,0.1-0.8,0.2-1.1L385.3,157.8z M389.7,165.2c-0.9,0-1.6,0.7-1.6,1.6c0,0.9,0.7,1.6,1.6,1.6
			c0.9,0,1.6-0.7,1.6-1.6C391.2,165.9,390.5,165.2,389.7,165.2z M389.7,144.9c1.4,0,2.6,1.2,2.6,2.7c0,0.6-0.2,1.1-0.5,1.6l5.3,5.8
			c0.4-0.3,0.9-0.4,1.4-0.4c1.4,0,2.6,1.2,2.6,2.7s-1.2,2.7-2.6,2.7c-0.5,0-1-0.2-1.4-0.4l-5.3,5.8c0.3,0.4,0.5,1,0.5,1.6
			c0,1.5-1.2,2.7-2.6,2.7c-1.4,0-2.6-1.2-2.6-2.7c0-0.4,0.1-0.8,0.2-1.1l-4.6-3.4c-0.5,0.5-1.1,0.8-1.8,0.8c-1.4,0-2.6-1.2-2.6-2.7
			s1.2-2.7,2.6-2.7c0.7,0,1.3,0.3,1.8,0.8l1.8-1.3l-1.8-1.3c-0.5,0.5-1.1,0.8-1.8,0.8c-1.4,0-2.6-1.2-2.6-2.7c0-1.5,1.2-2.7,2.6-2.7
			c0.7,0,1.3,0.3,1.8,0.8l4.6-3.4c-0.2-0.3-0.2-0.7-0.2-1.1C387.1,146.1,388.2,144.9,389.7,144.9z"/>
		<g>
			<text transform="matrix(1.0072 0 0 1 420.4946 156.845)" class="st2 st3">papers</text>
			<text transform="matrix(1.0072 0 0 1 409.7217 167.4309)" class="st6 st7">allenai-specter</text>
			<text transform="matrix(1.0072 0 0 1 267.7026 150.4309)" class="st6 st7">arxiv papers</text>
			<text transform="matrix(1.0072 0 0 1 260.7822 200.4309)" class="st6 st7">chunked texts</text>
		</g>
	</g>
	<g>
		<rect x="453" y="513" class="st12" width="135" height="49"/>
		<path class="st10" d="M473.7,525.9c-0.9,0-1.6,0.7-1.6,1.6c0,0.9,0.7,1.6,1.6,1.6c0.9,0,1.6-0.7,1.6-1.6
			C475.2,526.7,474.5,525.9,473.7,525.9z M473.7,532.4c-0.9,0-1.6,0.7-1.6,1.6c0,0.9,0.7,1.6,1.6,1.6c0.9,0,1.6-0.7,1.6-1.6
			C475.2,533.1,474.5,532.4,473.7,532.4z M464.9,532.4c-0.9,0-1.6,0.7-1.6,1.6c0,0.9,0.7,1.6,1.6,1.6c0.9,0,1.6-0.7,1.6-1.6
			C466.4,533.1,465.7,532.4,464.9,532.4z M471.9,529.5l-4.6,3.4c0.2,0.3,0.2,0.7,0.2,1.1c0,0.4-0.1,0.8-0.2,1.1l2.1,1.5l2.1-1.5
			c-0.2-0.3-0.2-0.7-0.2-1.1c0-1.5,1.2-2.7,2.6-2.7c1.4,0,2.6,1.2,2.6,2.7c0,0.1,0,0.3,0,0.4l4,1.5c0-0.1,0.1-0.2,0.2-0.3l-5.3-5.8
			c-0.4,0.3-0.9,0.4-1.4,0.4C473,530.2,472.3,529.9,471.9,529.5z M482.5,535.6c-0.9,0-1.6,0.7-1.6,1.6c0,0.9,0.7,1.6,1.6,1.6
			s1.6-0.7,1.6-1.6C484.1,536.3,483.4,535.6,482.5,535.6z M473.7,536.6c-0.7,0-1.3-0.3-1.8-0.8l-1.8,1.3l1.8,1.3
			c0.5-0.5,1.1-0.8,1.8-0.8c1,0,1.8,0.5,2.3,1.3l4-1.5c0-0.1,0-0.3,0-0.4c0-0.1,0-0.3,0-0.4l-4-1.5
			C475.5,536.1,474.6,536.6,473.7,536.6z M473.7,538.8c-0.9,0-1.6,0.7-1.6,1.6c0,0.9,0.7,1.6,1.6,1.6c0.9,0,1.6-0.7,1.6-1.6
			C475.2,539.5,474.5,538.8,473.7,538.8z M464.9,538.8c-0.9,0-1.6,0.7-1.6,1.6c0,0.9,0.7,1.6,1.6,1.6c0.9,0,1.6-0.7,1.6-1.6
			C466.4,539.5,465.7,538.8,464.9,538.8z M469.3,537.8l-2.1,1.5c0.2,0.3,0.2,0.7,0.2,1.1c0,0.4-0.1,0.8-0.2,1.1l4.6,3.4
			c0.5-0.5,1.1-0.8,1.8-0.8c0.5,0,1,0.2,1.4,0.4l5.3-5.8c-0.1-0.1-0.1-0.2-0.2-0.3l-4,1.5c0,0.1,0,0.3,0,0.4c0,1.5-1.2,2.7-2.6,2.7
			c-1.4,0-2.6-1.2-2.6-2.7c0-0.4,0.1-0.8,0.2-1.1L469.3,537.8z M473.7,545.2c-0.9,0-1.6,0.7-1.6,1.6c0,0.9,0.7,1.6,1.6,1.6
			c0.9,0,1.6-0.7,1.6-1.6C475.2,545.9,474.5,545.2,473.7,545.2z M473.7,524.9c1.4,0,2.6,1.2,2.6,2.7c0,0.6-0.2,1.1-0.5,1.6l5.3,5.8
			c0.4-0.3,0.9-0.4,1.4-0.4c1.4,0,2.6,1.2,2.6,2.7c0,1.5-1.2,2.7-2.6,2.7c-0.5,0-1-0.2-1.4-0.4l-5.3,5.8c0.3,0.4,0.5,1,0.5,1.6
			c0,1.5-1.2,2.7-2.6,2.7c-1.4,0-2.6-1.2-2.6-2.7c0-0.4,0.1-0.8,0.2-1.1l-4.6-3.4c-0.5,0.5-1.1,0.8-1.8,0.8c-1.4,0-2.6-1.2-2.6-2.7
			c0-1.5,1.2-2.7,2.6-2.7c0.7,0,1.3,0.3,1.8,0.8l1.8-1.3l-1.8-1.3c-0.5,0.5-1.1,0.8-1.8,0.8c-1.4,0-2.6-1.2-2.6-2.7
			c0-1.5,1.2-2.7,2.6-2.7c0.7,0,1.3,0.3,1.8,0.8l4.6-3.4c-0.2-0.3-0.2-0.7-0.2-1.1C471.1,526.1,472.2,524.9,473.7,524.9z"/>
		<g>
			<text transform="matrix(1.0072 0 0 1 513.1055 536.845)" class="st2 st3">reader</text>
			<text transform="matrix(1.0072 0 0 1 490.2793 547.4309)" class="st6 st7">electra-base-squad2</text>
		</g>
	</g>
	<g>
		<g>
			<path class="st13" d="M226.4,214.1L226.4,214.1L226.4,214.1c0-0.2,0-42.8,0-43.4V160c-0.1,0.1-0.3,0.2-0.4,0.2
				c-1.4,0.8-3,1.5-4.5,2c-0.2,0.1-0.4,0.1-0.6,0.2c-0.1,0-0.1,0-0.2,0.1c-0.1,0.1-0.3,0.1-0.4,0.1c-3.4,1.2-7,1.9-10.6,2.5
				c-0.2,0-0.4,0.1-0.6,0.1c-0.1,0-0.3,0-0.4,0.1c-1.9,0.3-3.8,0.4-5.6,0.6c-0.2,0-0.3,0-0.5,0c-0.1,0-0.3,0-0.4,0
				c-0.2,0-0.3,0-0.5,0c-4.5,0.3-9,0.4-13.5,0.1c-1.2-0.1-2.4-0.2-3.6-0.3c-0.2,0-0.5,0-0.7-0.1c-0.2,0-0.5,0-0.7-0.1
				c-0.2,0-0.5-0.1-0.7-0.1c-0.4,0-0.7-0.1-1.1-0.1c-5.6-0.7-11.2-1.7-16.5-3.9c-1.1-0.5-2.2-1-3.3-1.6v11.1c0,0.5,0,42,0,42.4
				c0,0.1,0,0.2,0,0.3h0c0-0.1,0-0.1,0-0.2c0,0.1,0,0.1,0,0.2c0,0.1,0,0.2,0,0.2v0c0,0,0,0,0,0c0,0,0,0,0,0c0,0,0,0,0,0
				c0,0.1,0,0.1,0,0.2c0,0,0-0.1,0-0.1v0c0.1,0.1,0.1,0.3,0.2,0.4c0-0.1-0.1-0.2-0.1-0.3c0.1,0.1,0.1,0.3,0.2,0.4
				c0,0.1,0.1,0.1,0.1,0.2c0.2,0.2,0.4,0.5,0.6,0.7c0.1,0.1,0.2,0.2,0.3,0.3c0,0,0,0,0.1,0c1.2,0.8,2.4,1.5,3.8,2.1
				c4.3,1.8,8.9,2.7,13.5,3.3c-0.1,0-0.1,0-0.2,0c0.2,0,0.4,0.1,0.7,0.1c-0.1,0-0.3,0-0.4-0.1c1.9,0.2,3.7,0.4,5.6,0.6
				c7.1,0.5,14.3,0.4,21.3-0.6c4.6-0.6,9.3-1.6,13.6-3.4c1.3-0.6,2.6-1.3,3.8-2.1c0,0,0,0,0,0c0.1-0.1,0.3-0.2,0.4-0.3
				c0.2-0.2,0.4-0.4,0.6-0.6c0.1-0.1,0.1-0.1,0.1-0.2C226.2,214.5,226.4,214.2,226.4,214.1C226.4,214.1,226.4,214.1,226.4,214.1
				c0,0,0-0.1,0.1-0.1C226.4,214,226.4,214,226.4,214.1z"/>
			<path class="st13" d="M226.4,152.7C226.4,152.7,226.4,152.7,226.4,152.7c0,0.1,0,0.1,0,0.1v0.1v0.1c0,0.1-0.1,0.2-0.1,0.3
				c-0.1,0.1-0.1,0.3-0.2,0.4c0,0.1-0.1,0.1-0.1,0.2c-0.2,0.2-0.4,0.4-0.6,0.6c-0.1,0.1-0.2,0.2-0.4,0.3c0,0,0,0,0,0
				c-1.2,0.8-2.4,1.5-3.7,2.1c-4.3,1.8-9,2.7-13.7,3.4c-7.1,0.9-14.2,1.1-21.3,0.6c-1.9-0.1-3.7-0.3-5.6-0.6c0.1,0,0.3,0,0.4,0.1
				c-0.2,0-0.4-0.1-0.6-0.1c0,0,0.1,0,0.1,0c-4.6-0.6-9.2-1.6-13.5-3.4c-1.3-0.6-2.6-1.2-3.7-2.1c0,0,0,0-0.1,0
				c-0.1-0.1-0.2-0.2-0.3-0.3c-0.2-0.2-0.4-0.4-0.6-0.7c0-0.1-0.1-0.1-0.1-0.2c-0.1-0.1-0.2-0.3-0.2-0.4c0,0.1,0.1,0.2,0.1,0.3
				c-0.1-0.1-0.1-0.3-0.2-0.4c0,0.1,0,0.1,0,0.2c0-0.1,0-0.1,0-0.2c0,0,0,0,0,0c0,0,0-0.1-0.1-0.1c0,0,0,0.1,0,0.1c0,0,0-0.1,0-0.1
				c0-0.1,0-0.1,0-0.1c0-0.1,0-0.1,0-0.2c0,0.1,0,0.1,0,0.2c0-0.1,0-0.1,0-0.2c0,0,0,0,0-0.1c0,0,0,0,0,0.1c0,0,0,0,0-0.1
				c0,0,0,0,0-0.1c0-0.1,0-0.1,0-0.2c0,0,0,0.1,0,0.1c0.1-0.2,0.1-0.3,0.2-0.5c0,0.1-0.1,0.2-0.1,0.3c0.1-0.1,0.2-0.3,0.2-0.4
				c0,0-0.1,0-0.1,0.1c0,0,0.4-0.5,0.2-0.3c0,0.1-0.1,0.1-0.1,0.2c0,0,0,0,0,0c0.1-0.1,0.2-0.2,0.2-0.3c0.2-0.2,0.4-0.5,0.7-0.7
				c0.1-0.1,0.2-0.2,0.4-0.3c0,0,0.1,0,0.1-0.1c1.1-0.8,2.3-1.4,3.6-2c4.3-1.8,8.9-2.7,13.5-3.4c-0.1,0-0.1,0-0.2,0
				c0.2,0,0.4-0.1,0.7-0.1c-0.1,0-0.3,0-0.4,0.1c7.1-0.9,14.3-1.1,21.5-0.6c1.9,0.1,3.8,0.3,5.7,0.6c-0.2,0-0.3,0-0.5-0.1
				c0.2,0,0.4,0.1,0.7,0.1c-0.1,0-0.1,0-0.2,0c4.6,0.6,9.2,1.6,13.5,3.3c1.2,0.5,2.5,1.2,3.6,2c0,0,0.1,0.1,0.1,0.1
				c0.1,0.1,0.2,0.2,0.3,0.2c0.2,0.2,0.5,0.4,0.7,0.7c0.1,0.1,0.1,0.1,0.1,0.2c0,0,0,0.1,0.1,0.1c0.1,0.2,0.2,0.3,0.3,0.5
				c0-0.1-0.1-0.2-0.1-0.3C226.2,152.3,226.3,152.4,226.4,152.7c-0.1-0.1-0.1-0.2-0.1-0.2C226.4,152.5,226.4,152.6,226.4,152.7
				C226.4,152.6,226.4,152.7,226.4,152.7L226.4,152.7z"/>
		</g>
		<g>
			<text transform="matrix(1.0072 0 0 1 173.6453 185.5176)" class="st2 st3">align-lit</text>
			<text transform="matrix(1.0072 0 0 1 169.9285 196.1035)"><tspan x="0" y="0" class="st6 st7">json dataset</tspan><tspan x="2.7" y="10.8" class="st6 st7">arxiv blogs</tspan></text>
		</g>
	</g>
	<g>
		<text transform="matrix(1.0072 0 0 1 44.4025 388.5945)" class="st2 st3">Find Duplicates</text>
		<text transform="matrix(1.0072 0 0 1 38.821 399.1805)" class="st6 st7">report paraphrased faqs</text>
	</g>
	<g>
		<g>
			<text transform="matrix(1.0072 0 0 1 38.8521 340.1398)" class="st2 st3">Semantic Search</text>
			<text transform="matrix(1.0072 0 0 1 54.3004 350.7257)" class="st6 st7">for similar faqs</text>
		</g>
		<text transform="matrix(1 0 0 1 43.7789 325.5194)" class="st14 st15 st3">/api/search</text>
	</g>
	<g>
		<g>
			<text transform="matrix(1.0072 0 0 1 38.5318 451.0941)" class="st2 st3">Paper Abstracts</text>
			<text transform="matrix(1.0072 0 0 1 39.7617 461.68)" class="st6 st7">search arxiv research</text>
		</g>
		<text transform="matrix(1 0 0 1 41.7847 436.4742)" class="st14 st15 st3">/api/papers</text>
	</g>
	<g>
		<rect x="185" y="305" class="st9" width="135" height="49"/>
		<path class="st10" d="M213.7,317.9c-0.9,0-1.6,0.7-1.6,1.6c0,0.9,0.7,1.6,1.6,1.6c0.9,0,1.6-0.7,1.6-1.6
			C215.2,318.7,214.5,317.9,213.7,317.9z M213.7,324.4c-0.9,0-1.6,0.7-1.6,1.6c0,0.9,0.7,1.6,1.6,1.6c0.9,0,1.6-0.7,1.6-1.6
			C215.2,325.1,214.5,324.4,213.7,324.4z M204.9,324.4c-0.9,0-1.6,0.7-1.6,1.6c0,0.9,0.7,1.6,1.6,1.6c0.9,0,1.6-0.7,1.6-1.6
			C206.4,325.1,205.7,324.4,204.9,324.4z M211.9,321.5l-4.6,3.4c0.2,0.3,0.2,0.7,0.2,1.1c0,0.4-0.1,0.8-0.2,1.1l2.1,1.5l2.1-1.5
			c-0.2-0.3-0.2-0.7-0.2-1.1c0-1.5,1.2-2.7,2.6-2.7c1.4,0,2.6,1.2,2.6,2.7c0,0.1,0,0.3,0,0.4l4,1.5c0-0.1,0.1-0.2,0.2-0.3l-5.3-5.8
			c-0.4,0.3-0.9,0.4-1.4,0.4C213,322.2,212.3,321.9,211.9,321.5z M222.5,327.6c-0.9,0-1.6,0.7-1.6,1.6c0,0.9,0.7,1.6,1.6,1.6
			c0.9,0,1.6-0.7,1.6-1.6C224.1,328.3,223.4,327.6,222.5,327.6z M213.7,328.6c-0.7,0-1.3-0.3-1.8-0.8l-1.8,1.3l1.8,1.3
			c0.5-0.5,1.1-0.8,1.8-0.8c1,0,1.8,0.5,2.3,1.3l4-1.5c0-0.1,0-0.3,0-0.4c0-0.1,0-0.3,0-0.4l-4-1.5
			C215.5,328.1,214.6,328.6,213.7,328.6z M213.7,330.8c-0.9,0-1.6,0.7-1.6,1.6c0,0.9,0.7,1.6,1.6,1.6c0.9,0,1.6-0.7,1.6-1.6
			C215.2,331.5,214.5,330.8,213.7,330.8z M204.9,330.8c-0.9,0-1.6,0.7-1.6,1.6c0,0.9,0.7,1.6,1.6,1.6c0.9,0,1.6-0.7,1.6-1.6
			C206.4,331.5,205.7,330.8,204.9,330.8z M209.3,329.8l-2.1,1.5c0.2,0.3,0.2,0.7,0.2,1.1c0,0.4-0.1,0.8-0.2,1.1l4.6,3.4
			c0.5-0.5,1.1-0.8,1.8-0.8c0.5,0,1,0.2,1.4,0.4l5.3-5.8c-0.1-0.1-0.1-0.2-0.2-0.3l-4,1.5c0,0.1,0,0.3,0,0.4c0,1.5-1.2,2.7-2.6,2.7
			c-1.4,0-2.6-1.2-2.6-2.7c0-0.4,0.1-0.8,0.2-1.1L209.3,329.8z M213.7,337.2c-0.9,0-1.6,0.7-1.6,1.6s0.7,1.6,1.6,1.6
			c0.9,0,1.6-0.7,1.6-1.6S214.5,337.2,213.7,337.2z M213.7,316.9c1.4,0,2.6,1.2,2.6,2.7c0,0.6-0.2,1.1-0.5,1.6l5.3,5.8
			c0.4-0.3,0.9-0.4,1.4-0.4c1.4,0,2.6,1.2,2.6,2.7s-1.2,2.7-2.6,2.7c-0.5,0-1-0.2-1.4-0.4l-5.3,5.8c0.3,0.4,0.5,1,0.5,1.6
			c0,1.5-1.2,2.7-2.6,2.7c-1.4,0-2.6-1.2-2.6-2.7c0-0.4,0.1-0.8,0.2-1.1l-4.6-3.4c-0.5,0.5-1.1,0.8-1.8,0.8c-1.4,0-2.6-1.2-2.6-2.7
			s1.2-2.7,2.6-2.7c0.7,0,1.3,0.3,1.8,0.8l1.8-1.3l-1.8-1.3c-0.5,0.5-1.1,0.8-1.8,0.8c-1.4,0-2.6-1.2-2.6-2.7c0-1.5,1.2-2.7,2.6-2.7
			c0.7,0,1.3,0.3,1.8,0.8l4.6-3.4c-0.2-0.3-0.2-0.7-0.2-1.1C211.1,318.1,212.2,316.9,213.7,316.9z"/>
		<g>
			<text transform="matrix(1.0072 0 0 1 239.1465 328.845)" class="st2 st3">retriever</text>
			<text transform="matrix(1.0072 0 0 1 231.6978 339.4309)" class="st6 st7">multi-qa-mpnet</text>
		</g>
	</g>
	<g>
		<rect x="185" y="513" class="st9" width="135" height="49"/>
		<path class="st10" d="M213.7,525.9c-0.9,0-1.6,0.7-1.6,1.6c0,0.9,0.7,1.6,1.6,1.6c0.9,0,1.6-0.7,1.6-1.6
			C215.2,526.7,214.5,525.9,213.7,525.9z M213.7,532.4c-0.9,0-1.6,0.7-1.6,1.6c0,0.9,0.7,1.6,1.6,1.6c0.9,0,1.6-0.7,1.6-1.6
			C215.2,533.1,214.5,532.4,213.7,532.4z M204.9,532.4c-0.9,0-1.6,0.7-1.6,1.6c0,0.9,0.7,1.6,1.6,1.6c0.9,0,1.6-0.7,1.6-1.6
			C206.4,533.1,205.7,532.4,204.9,532.4z M211.9,529.5l-4.6,3.4c0.2,0.3,0.2,0.7,0.2,1.1c0,0.4-0.1,0.8-0.2,1.1l2.1,1.5l2.1-1.5
			c-0.2-0.3-0.2-0.7-0.2-1.1c0-1.5,1.2-2.7,2.6-2.7c1.4,0,2.6,1.2,2.6,2.7c0,0.1,0,0.3,0,0.4l4,1.5c0-0.1,0.1-0.2,0.2-0.3l-5.3-5.8
			c-0.4,0.3-0.9,0.4-1.4,0.4C213,530.2,212.3,529.9,211.9,529.5z M222.5,535.6c-0.9,0-1.6,0.7-1.6,1.6c0,0.9,0.7,1.6,1.6,1.6
			c0.9,0,1.6-0.7,1.6-1.6C224.1,536.3,223.4,535.6,222.5,535.6z M213.7,536.6c-0.7,0-1.3-0.3-1.8-0.8l-1.8,1.3l1.8,1.3
			c0.5-0.5,1.1-0.8,1.8-0.8c1,0,1.8,0.5,2.3,1.3l4-1.5c0-0.1,0-0.3,0-0.4c0-0.1,0-0.3,0-0.4l-4-1.5
			C215.5,536.1,214.6,536.6,213.7,536.6z M213.7,538.8c-0.9,0-1.6,0.7-1.6,1.6c0,0.9,0.7,1.6,1.6,1.6c0.9,0,1.6-0.7,1.6-1.6
			C215.2,539.5,214.5,538.8,213.7,538.8z M204.9,538.8c-0.9,0-1.6,0.7-1.6,1.6c0,0.9,0.7,1.6,1.6,1.6c0.9,0,1.6-0.7,1.6-1.6
			C206.4,539.5,205.7,538.8,204.9,538.8z M209.3,537.8l-2.1,1.5c0.2,0.3,0.2,0.7,0.2,1.1c0,0.4-0.1,0.8-0.2,1.1l4.6,3.4
			c0.5-0.5,1.1-0.8,1.8-0.8c0.5,0,1,0.2,1.4,0.4l5.3-5.8c-0.1-0.1-0.1-0.2-0.2-0.3l-4,1.5c0,0.1,0,0.3,0,0.4c0,1.5-1.2,2.7-2.6,2.7
			c-1.4,0-2.6-1.2-2.6-2.7c0-0.4,0.1-0.8,0.2-1.1L209.3,537.8z M213.7,545.2c-0.9,0-1.6,0.7-1.6,1.6c0,0.9,0.7,1.6,1.6,1.6
			c0.9,0,1.6-0.7,1.6-1.6C215.2,545.9,214.5,545.2,213.7,545.2z M213.7,524.9c1.4,0,2.6,1.2,2.6,2.7c0,0.6-0.2,1.1-0.5,1.6l5.3,5.8
			c0.4-0.3,0.9-0.4,1.4-0.4c1.4,0,2.6,1.2,2.6,2.7c0,1.5-1.2,2.7-2.6,2.7c-0.5,0-1-0.2-1.4-0.4l-5.3,5.8c0.3,0.4,0.5,1,0.5,1.6
			c0,1.5-1.2,2.7-2.6,2.7c-1.4,0-2.6-1.2-2.6-2.7c0-0.4,0.1-0.8,0.2-1.1l-4.6-3.4c-0.5,0.5-1.1,0.8-1.8,0.8c-1.4,0-2.6-1.2-2.6-2.7
			c0-1.5,1.2-2.7,2.6-2.7c0.7,0,1.3,0.3,1.8,0.8l1.8-1.3l-1.8-1.3c-0.5,0.5-1.1,0.8-1.8,0.8c-1.4,0-2.6-1.2-2.6-2.7
			c0-1.5,1.2-2.7,2.6-2.7c0.7,0,1.3,0.3,1.8,0.8l4.6-3.4c-0.2-0.3-0.2-0.7-0.2-1.1C211.1,526.1,212.2,524.9,213.7,524.9z"/>
		<g>
			<text transform="matrix(1.0072 0 0 1 239.1465 536.845)" class="st2 st3">retriever</text>
			<text transform="matrix(1.0072 0 0 1 231.6978 547.4309)" class="st6 st7">multi-qa-mpnet</text>
		</g>
	</g>
	<g>
		<rect x="185" y="427" class="st11" width="135" height="49"/>
		<path class="st10" d="M213.7,439.9c-0.9,0-1.6,0.7-1.6,1.6c0,0.9,0.7,1.6,1.6,1.6c0.9,0,1.6-0.7,1.6-1.6
			C215.2,440.7,214.5,439.9,213.7,439.9z M213.7,446.4c-0.9,0-1.6,0.7-1.6,1.6c0,0.9,0.7,1.6,1.6,1.6c0.9,0,1.6-0.7,1.6-1.6
			C215.2,447.1,214.5,446.4,213.7,446.4z M204.9,446.4c-0.9,0-1.6,0.7-1.6,1.6c0,0.9,0.7,1.6,1.6,1.6c0.9,0,1.6-0.7,1.6-1.6
			C206.4,447.1,205.7,446.4,204.9,446.4z M211.9,443.5l-4.6,3.4c0.2,0.3,0.2,0.7,0.2,1.1c0,0.4-0.1,0.8-0.2,1.1l2.1,1.5l2.1-1.5
			c-0.2-0.3-0.2-0.7-0.2-1.1c0-1.5,1.2-2.7,2.6-2.7c1.4,0,2.6,1.2,2.6,2.7c0,0.1,0,0.3,0,0.4l4,1.5c0-0.1,0.1-0.2,0.2-0.3l-5.3-5.8
			c-0.4,0.3-0.9,0.4-1.4,0.4C213,444.2,212.3,443.9,211.9,443.5z M222.5,449.6c-0.9,0-1.6,0.7-1.6,1.6c0,0.9,0.7,1.6,1.6,1.6
			c0.9,0,1.6-0.7,1.6-1.6C224.1,450.3,223.4,449.6,222.5,449.6z M213.7,450.6c-0.7,0-1.3-0.3-1.8-0.8l-1.8,1.3l1.8,1.3
			c0.5-0.5,1.1-0.8,1.8-0.8c1,0,1.8,0.5,2.3,1.3l4-1.5c0-0.1,0-0.3,0-0.4c0-0.1,0-0.3,0-0.4l-4-1.5
			C215.5,450.1,214.6,450.6,213.7,450.6z M213.7,452.8c-0.9,0-1.6,0.7-1.6,1.6c0,0.9,0.7,1.6,1.6,1.6c0.9,0,1.6-0.7,1.6-1.6
			C215.2,453.5,214.5,452.8,213.7,452.8z M204.9,452.8c-0.9,0-1.6,0.7-1.6,1.6c0,0.9,0.7,1.6,1.6,1.6c0.9,0,1.6-0.7,1.6-1.6
			C206.4,453.5,205.7,452.8,204.9,452.8z M209.3,451.8l-2.1,1.5c0.2,0.3,0.2,0.7,0.2,1.1c0,0.4-0.1,0.8-0.2,1.1l4.6,3.4
			c0.5-0.5,1.1-0.8,1.8-0.8c0.5,0,1,0.2,1.4,0.4l5.3-5.8c-0.1-0.1-0.1-0.2-0.2-0.3l-4,1.5c0,0.1,0,0.3,0,0.4c0,1.5-1.2,2.7-2.6,2.7
			c-1.4,0-2.6-1.2-2.6-2.7c0-0.4,0.1-0.8,0.2-1.1L209.3,451.8z M213.7,459.2c-0.9,0-1.6,0.7-1.6,1.6s0.7,1.6,1.6,1.6
			c0.9,0,1.6-0.7,1.6-1.6S214.5,459.2,213.7,459.2z M213.7,438.9c1.4,0,2.6,1.2,2.6,2.7c0,0.6-0.2,1.1-0.5,1.6l5.3,5.8
			c0.4-0.3,0.9-0.4,1.4-0.4c1.4,0,2.6,1.2,2.6,2.7s-1.2,2.7-2.6,2.7c-0.5,0-1-0.2-1.4-0.4l-5.3,5.8c0.3,0.4,0.5,1,0.5,1.6
			c0,1.5-1.2,2.7-2.6,2.7c-1.4,0-2.6-1.2-2.6-2.7c0-0.4,0.1-0.8,0.2-1.1l-4.6-3.4c-0.5,0.5-1.1,0.8-1.8,0.8c-1.4,0-2.6-1.2-2.6-2.7
			s1.2-2.7,2.6-2.7c0.7,0,1.3,0.3,1.8,0.8l1.8-1.3l-1.8-1.3c-0.5,0.5-1.1,0.8-1.8,0.8c-1.4,0-2.6-1.2-2.6-2.7c0-1.5,1.2-2.7,2.6-2.7
			c0.7,0,1.3,0.3,1.8,0.8l4.6-3.4c-0.2-0.3-0.2-0.7-0.2-1.1C211.1,440.1,212.2,438.9,213.7,438.9z"/>
		<g>
			<text transform="matrix(1.0072 0 0 1 244.4946 450.845)" class="st2 st3">papers</text>
			<text transform="matrix(1.0072 0 0 1 233.7217 461.4309)" class="st6 st7">allenai-specter</text>
		</g>
	</g>
	<g>
		<g>
			<text transform="matrix(1.0072 0 0 1 56.3406 537.0942)" class="st2 st3">Extract QA</text>
			<text transform="matrix(1.0072 0 0 1 38.8206 547.6802)" class="st6 st7">report paraphrased faqs</text>
		</g>
		<text transform="matrix(1 0 0 1 43.2663 522.4742)" class="st14 st15 st3">/api/extract</text>
	</g>
	<g>
		<path class="st1" d="M386.7,333.9C386.7,333.9,386.7,333.8,386.7,333.9C386.7,333.8,386.7,333.9,386.7,333.9z"/>
		<g>
			<path class="st8" d="M419,364.6L419,364.6L419,364.6c0-0.2,0-42.8,0-43.4v-10.6c-0.1,0.1-0.3,0.2-0.4,0.2c-1.4,0.8-3,1.5-4.5,2
				c-0.2,0.1-0.4,0.1-0.6,0.2c-0.1,0-0.1,0-0.2,0.1c-0.1,0.1-0.3,0.1-0.4,0.1c-3.4,1.2-7,1.9-10.6,2.5c-0.2,0-0.4,0.1-0.6,0.1
				c-0.1,0-0.3,0-0.4,0.1c-1.9,0.3-3.8,0.4-5.6,0.6c-0.2,0-0.3,0-0.5,0c-0.1,0-0.3,0-0.4,0c-0.2,0-0.3,0-0.5,0
				c-4.5,0.3-9,0.4-13.5,0.1c-1.2-0.1-2.4-0.2-3.6-0.3c-0.2,0-0.5,0-0.7-0.1c-0.2,0-0.5,0-0.7-0.1c-0.2,0-0.5-0.1-0.7-0.1
				c-0.4,0-0.7-0.1-1.1-0.1c-5.6-0.7-11.2-1.7-16.5-3.9c-1.1-0.5-2.2-1-3.3-1.6v11.1c0,0.5,0,42,0,42.4c0,0.1,0,0.2,0,0.3h0
				c0-0.1,0-0.1,0-0.2c0,0.1,0,0.1,0,0.2c0,0.1,0,0.2,0,0.2v0c0,0,0,0,0,0c0,0,0,0,0,0c0,0,0,0,0,0c0,0.1,0,0.1,0,0.2
				c0,0,0-0.1,0-0.1v0c0.1,0.1,0.1,0.3,0.2,0.4c0-0.1-0.1-0.2-0.1-0.3c0.1,0.1,0.1,0.3,0.2,0.4c0,0.1,0.1,0.1,0.1,0.2
				c0.2,0.2,0.4,0.5,0.6,0.7c0.1,0.1,0.2,0.2,0.3,0.3c0,0,0,0,0.1,0c1.2,0.8,2.4,1.5,3.8,2.1c4.3,1.8,8.9,2.7,13.5,3.3
				c-0.1,0-0.1,0-0.2,0c0.2,0,0.4,0.1,0.7,0.1c-0.1,0-0.3,0-0.4-0.1c1.9,0.2,3.7,0.4,5.6,0.6c7.1,0.5,14.3,0.4,21.3-0.6
				c4.6-0.6,9.3-1.6,13.6-3.4c1.3-0.6,2.6-1.3,3.8-2.1c0,0,0,0,0,0c0.1-0.1,0.3-0.2,0.4-0.3c0.2-0.2,0.4-0.4,0.6-0.6
				c0.1-0.1,0.1-0.1,0.1-0.2C418.7,365,419,364.7,419,364.6C419,364.6,419,364.6,419,364.6c0,0,0-0.1,0.1-0.1
				C419,364.5,419,364.5,419,364.6z"/>
			<path class="st8" d="M419,303.2C419,303.2,419,303.2,419,303.2c0,0.1,0,0.1,0,0.1v0.1v0.1c0,0.1-0.1,0.2-0.1,0.3
				c-0.1,0.1-0.1,0.3-0.2,0.4c0,0.1-0.1,0.1-0.1,0.2c-0.2,0.2-0.4,0.4-0.6,0.6c-0.1,0.1-0.2,0.2-0.4,0.3c0,0,0,0,0,0
				c-1.2,0.8-2.4,1.5-3.7,2.1c-4.3,1.8-9,2.7-13.7,3.4c-7.1,0.9-14.2,1.1-21.3,0.6c-1.9-0.1-3.7-0.3-5.6-0.6c0.1,0,0.3,0,0.4,0.1
				c-0.2,0-0.4-0.1-0.6-0.1c0,0,0.1,0,0.1,0c-4.6-0.6-9.2-1.6-13.5-3.4c-1.3-0.6-2.6-1.2-3.7-2.1c0,0,0,0-0.1,0
				c-0.1-0.1-0.2-0.2-0.3-0.3c-0.2-0.2-0.4-0.4-0.6-0.7c0-0.1-0.1-0.1-0.1-0.2c-0.1-0.1-0.2-0.3-0.2-0.4c0,0.1,0.1,0.2,0.1,0.3
				c-0.1-0.1-0.1-0.3-0.2-0.4c0,0.1,0,0.1,0,0.2c0-0.1,0-0.1,0-0.2c0,0,0,0,0,0c0,0,0-0.1-0.1-0.1c0,0,0,0.1,0,0.1c0,0,0-0.1,0-0.1
				c0-0.1,0-0.1,0-0.1c0-0.1,0-0.1,0-0.2c0,0.1,0,0.1,0,0.2c0-0.1,0-0.1,0-0.2c0,0,0,0,0-0.1c0,0,0,0,0,0.1c0,0,0,0,0-0.1
				c0,0,0,0,0-0.1c0-0.1,0-0.1,0-0.2c0,0,0,0.1,0,0.1c0.1-0.2,0.1-0.3,0.2-0.5c0,0.1-0.1,0.2-0.1,0.3c0.1-0.1,0.2-0.3,0.2-0.4
				c0,0-0.1,0-0.1,0.1c0,0,0.4-0.5,0.2-0.3c0,0.1-0.1,0.1-0.1,0.2c0,0,0,0,0,0c0.1-0.1,0.2-0.2,0.2-0.3c0.2-0.2,0.4-0.5,0.7-0.7
				c0.1-0.1,0.2-0.2,0.4-0.3c0,0,0.1,0,0.1-0.1c1.1-0.8,2.3-1.4,3.6-2c4.3-1.8,8.9-2.7,13.5-3.4c-0.1,0-0.1,0-0.2,0
				c0.2,0,0.4-0.1,0.7-0.1c-0.1,0-0.3,0-0.4,0.1c7.1-0.9,14.3-1.1,21.5-0.6c1.9,0.1,3.8,0.3,5.7,0.6c-0.2,0-0.3,0-0.5-0.1
				c0.2,0,0.4,0.1,0.7,0.1c-0.1,0-0.1,0-0.2,0c4.6,0.6,9.2,1.6,13.5,3.3c1.2,0.5,2.5,1.2,3.6,2c0,0,0.1,0.1,0.1,0.1
				c0.1,0.1,0.2,0.2,0.3,0.2c0.2,0.2,0.5,0.4,0.7,0.7c0.1,0.1,0.1,0.1,0.1,0.2c0,0,0,0.1,0.1,0.1c0.1,0.2,0.2,0.3,0.3,0.5
				c0-0.1-0.1-0.2-0.1-0.3C418.8,302.8,418.9,302.9,419,303.2c-0.1-0.1-0.1-0.2-0.1-0.2C418.9,303,418.9,303.1,419,303.2
				C419,303.1,419,303.1,419,303.2L419,303.2z"/>
		</g>
		<g>
			<text transform="matrix(1 0 0 1 362.3095 342.0096)" class="st2 st3">pinecone</text>
			<text transform="matrix(1 0 0 1 367.9169 352.5956)" class="st6 st7">vector db</text>
		</g>
	</g>
	<g>
		<path class="st1" d="M386.7,450.9C386.7,450.9,386.7,450.8,386.7,450.9C386.7,450.8,386.7,450.9,386.7,450.9z"/>
		<g>
			<path class="st8" d="M419,481.6L419,481.6L419,481.6c0-0.2,0-42.8,0-43.4v-10.6c-0.1,0.1-0.3,0.2-0.4,0.2c-1.4,0.8-3,1.5-4.5,2
				c-0.2,0.1-0.4,0.1-0.6,0.2c-0.1,0-0.1,0-0.2,0.1c-0.1,0.1-0.3,0.1-0.4,0.1c-3.4,1.2-7,1.9-10.6,2.5c-0.2,0-0.4,0.1-0.6,0.1
				c-0.1,0-0.3,0-0.4,0.1c-1.9,0.3-3.8,0.4-5.6,0.6c-0.2,0-0.3,0-0.5,0c-0.1,0-0.3,0-0.4,0c-0.2,0-0.3,0-0.5,0
				c-4.5,0.3-9,0.4-13.5,0.1c-1.2-0.1-2.4-0.2-3.6-0.3c-0.2,0-0.5,0-0.7-0.1c-0.2,0-0.5,0-0.7-0.1c-0.2,0-0.5-0.1-0.7-0.1
				c-0.4,0-0.7-0.1-1.1-0.1c-5.6-0.7-11.2-1.7-16.5-3.9c-1.1-0.5-2.2-1-3.3-1.6v11.1c0,0.5,0,42,0,42.4c0,0.1,0,0.2,0,0.3h0
				c0-0.1,0-0.1,0-0.2c0,0.1,0,0.1,0,0.2c0,0.1,0,0.2,0,0.2v0c0,0,0,0,0,0c0,0,0,0,0,0c0,0,0,0,0,0c0,0.1,0,0.1,0,0.2
				c0,0,0-0.1,0-0.1v0c0.1,0.1,0.1,0.3,0.2,0.4c0-0.1-0.1-0.2-0.1-0.3c0.1,0.1,0.1,0.3,0.2,0.4c0,0.1,0.1,0.1,0.1,0.2
				c0.2,0.2,0.4,0.5,0.6,0.7c0.1,0.1,0.2,0.2,0.3,0.3c0,0,0,0,0.1,0c1.2,0.8,2.4,1.5,3.8,2.1c4.3,1.8,8.9,2.7,13.5,3.3
				c-0.1,0-0.1,0-0.2,0c0.2,0,0.4,0.1,0.7,0.1c-0.1,0-0.3,0-0.4-0.1c1.9,0.2,3.7,0.4,5.6,0.6c7.1,0.5,14.3,0.4,21.3-0.6
				c4.6-0.6,9.3-1.6,13.6-3.4c1.3-0.6,2.6-1.3,3.8-2.1c0,0,0,0,0,0c0.1-0.1,0.3-0.2,0.4-0.3c0.2-0.2,0.4-0.4,0.6-0.6
				c0.1-0.1,0.1-0.1,0.1-0.2C418.7,482,419,481.7,419,481.6C419,481.6,419,481.6,419,481.6c0,0,0-0.1,0.1-0.1
				C419,481.5,419,481.5,419,481.6z"/>
			<path class="st8" d="M419,420.2C419,420.2,419,420.2,419,420.2c0,0.1,0,0.1,0,0.1v0.1v0.1c0,0.1-0.1,0.2-0.1,0.3
				c-0.1,0.1-0.1,0.3-0.2,0.4c0,0.1-0.1,0.1-0.1,0.2c-0.2,0.2-0.4,0.4-0.6,0.6c-0.1,0.1-0.2,0.2-0.4,0.3c0,0,0,0,0,0
				c-1.2,0.8-2.4,1.5-3.7,2.1c-4.3,1.8-9,2.7-13.7,3.4c-7.1,0.9-14.2,1.1-21.3,0.6c-1.9-0.1-3.7-0.3-5.6-0.6c0.1,0,0.3,0,0.4,0.1
				c-0.2,0-0.4-0.1-0.6-0.1c0,0,0.1,0,0.1,0c-4.6-0.6-9.2-1.6-13.5-3.4c-1.3-0.6-2.6-1.2-3.7-2.1c0,0,0,0-0.1,0
				c-0.1-0.1-0.2-0.2-0.3-0.3c-0.2-0.2-0.4-0.4-0.6-0.7c0-0.1-0.1-0.1-0.1-0.2c-0.1-0.1-0.2-0.3-0.2-0.4c0,0.1,0.1,0.2,0.1,0.3
				c-0.1-0.1-0.1-0.3-0.2-0.4c0,0.1,0,0.1,0,0.2c0-0.1,0-0.1,0-0.2c0,0,0,0,0,0c0,0,0-0.1-0.1-0.1c0,0,0,0.1,0,0.1c0,0,0-0.1,0-0.1
				c0-0.1,0-0.1,0-0.1c0-0.1,0-0.1,0-0.2c0,0.1,0,0.1,0,0.2c0-0.1,0-0.1,0-0.2c0,0,0,0,0-0.1c0,0,0,0,0,0.1c0,0,0,0,0-0.1
				c0,0,0,0,0-0.1c0-0.1,0-0.1,0-0.2c0,0,0,0.1,0,0.1c0.1-0.2,0.1-0.3,0.2-0.5c0,0.1-0.1,0.2-0.1,0.3c0.1-0.1,0.2-0.3,0.2-0.4
				c0,0-0.1,0-0.1,0.1c0,0,0.4-0.5,0.2-0.3c0,0.1-0.1,0.1-0.1,0.2c0,0,0,0,0,0c0.1-0.1,0.2-0.2,0.2-0.3c0.2-0.2,0.4-0.5,0.7-0.7
				c0.1-0.1,0.2-0.2,0.4-0.3c0,0,0.1,0,0.1-0.1c1.1-0.8,2.3-1.4,3.6-2c4.3-1.8,8.9-2.7,13.5-3.4c-0.1,0-0.1,0-0.2,0
				c0.2,0,0.4-0.1,0.7-0.1c-0.1,0-0.3,0-0.4,0.1c7.1-0.9,14.3-1.1,21.5-0.6c1.9,0.1,3.8,0.3,5.7,0.6c-0.2,0-0.3,0-0.5-0.1
				c0.2,0,0.4,0.1,0.7,0.1c-0.1,0-0.1,0-0.2,0c4.6,0.6,9.2,1.6,13.5,3.3c1.2,0.5,2.5,1.2,3.6,2c0,0,0.1,0.1,0.1,0.1
				c0.1,0.1,0.2,0.2,0.3,0.2c0.2,0.2,0.5,0.4,0.7,0.7c0.1,0.1,0.1,0.1,0.1,0.2c0,0,0,0.1,0.1,0.1c0.1,0.2,0.2,0.3,0.3,0.5
				c0-0.1-0.1-0.2-0.1-0.3C418.8,419.8,418.9,419.9,419,420.2c-0.1-0.1-0.1-0.2-0.1-0.2C418.9,420,418.9,420.1,419,420.2
				C419,420.1,419,420.1,419,420.2L419,420.2z"/>
		</g>
		<g>
			<text transform="matrix(1 0 0 1 362.3095 459.0096)" class="st2 st3">pinecone</text>
			<text transform="matrix(1 0 0 1 367.9169 469.5956)" class="st6 st7">vector db</text>
		</g>
	</g>
	<g>
		<path class="st1" d="M386.7,537.9C386.7,537.9,386.7,537.8,386.7,537.9C386.7,537.8,386.7,537.9,386.7,537.9z"/>
		<g>
			<path class="st8" d="M419,568.6L419,568.6L419,568.6c0-0.2,0-42.8,0-43.4v-10.6c-0.1,0.1-0.3,0.2-0.4,0.2c-1.4,0.8-3,1.5-4.5,2
				c-0.2,0.1-0.4,0.1-0.6,0.2c-0.1,0-0.1,0-0.2,0.1c-0.1,0.1-0.3,0.1-0.4,0.1c-3.4,1.2-7,1.9-10.6,2.5c-0.2,0-0.4,0.1-0.6,0.1
				c-0.1,0-0.3,0-0.4,0.1c-1.9,0.3-3.8,0.4-5.6,0.6c-0.2,0-0.3,0-0.5,0c-0.1,0-0.3,0-0.4,0c-0.2,0-0.3,0-0.5,0
				c-4.5,0.3-9,0.4-13.5,0.1c-1.2-0.1-2.4-0.2-3.6-0.3c-0.2,0-0.5,0-0.7-0.1c-0.2,0-0.5,0-0.7-0.1c-0.2,0-0.5-0.1-0.7-0.1
				c-0.4,0-0.7-0.1-1.1-0.1c-5.6-0.7-11.2-1.7-16.5-3.9c-1.1-0.5-2.2-1-3.3-1.6v11.1c0,0.5,0,42,0,42.4c0,0.1,0,0.2,0,0.3h0
				c0-0.1,0-0.1,0-0.2c0,0.1,0,0.1,0,0.2c0,0.1,0,0.2,0,0.2v0c0,0,0,0,0,0c0,0,0,0,0,0c0,0,0,0,0,0c0,0.1,0,0.1,0,0.2
				c0,0,0-0.1,0-0.1v0c0.1,0.1,0.1,0.3,0.2,0.4c0-0.1-0.1-0.2-0.1-0.3c0.1,0.1,0.1,0.3,0.2,0.4c0,0.1,0.1,0.1,0.1,0.2
				c0.2,0.2,0.4,0.5,0.6,0.7c0.1,0.1,0.2,0.2,0.3,0.3c0,0,0,0,0.1,0c1.2,0.8,2.4,1.5,3.8,2.1c4.3,1.8,8.9,2.7,13.5,3.3
				c-0.1,0-0.1,0-0.2,0c0.2,0,0.4,0.1,0.7,0.1c-0.1,0-0.3,0-0.4-0.1c1.9,0.2,3.7,0.4,5.6,0.6c7.1,0.5,14.3,0.4,21.3-0.6
				c4.6-0.6,9.3-1.6,13.6-3.4c1.3-0.6,2.6-1.3,3.8-2.1c0,0,0,0,0,0c0.1-0.1,0.3-0.2,0.4-0.3c0.2-0.2,0.4-0.4,0.6-0.6
				c0.1-0.1,0.1-0.1,0.1-0.2C418.7,569,419,568.7,419,568.6C419,568.6,419,568.6,419,568.6c0,0,0-0.1,0.1-0.1
				C419,568.5,419,568.5,419,568.6z"/>
			<path class="st8" d="M419,507.2C419,507.2,419,507.2,419,507.2c0,0.1,0,0.1,0,0.1v0.1v0.1c0,0.1-0.1,0.2-0.1,0.3
				c-0.1,0.1-0.1,0.3-0.2,0.4c0,0.1-0.1,0.1-0.1,0.2c-0.2,0.2-0.4,0.4-0.6,0.6c-0.1,0.1-0.2,0.2-0.4,0.3c0,0,0,0,0,0
				c-1.2,0.8-2.4,1.5-3.7,2.1c-4.3,1.8-9,2.7-13.7,3.4c-7.1,0.9-14.2,1.1-21.3,0.6c-1.9-0.1-3.7-0.3-5.6-0.6c0.1,0,0.3,0,0.4,0.1
				c-0.2,0-0.4-0.1-0.6-0.1c0,0,0.1,0,0.1,0c-4.6-0.6-9.2-1.6-13.5-3.4c-1.3-0.6-2.6-1.2-3.7-2.1c0,0,0,0-0.1,0
				c-0.1-0.1-0.2-0.2-0.3-0.3c-0.2-0.2-0.4-0.4-0.6-0.7c0-0.1-0.1-0.1-0.1-0.2c-0.1-0.1-0.2-0.3-0.2-0.4c0,0.1,0.1,0.2,0.1,0.3
				c-0.1-0.1-0.1-0.3-0.2-0.4c0,0.1,0,0.1,0,0.2c0-0.1,0-0.1,0-0.2c0,0,0,0,0,0c0,0,0-0.1-0.1-0.1c0,0,0,0.1,0,0.1c0,0,0-0.1,0-0.1
				c0-0.1,0-0.1,0-0.1c0-0.1,0-0.1,0-0.2c0,0.1,0,0.1,0,0.2c0-0.1,0-0.1,0-0.2c0,0,0,0,0-0.1c0,0,0,0,0,0.1c0,0,0,0,0-0.1
				c0,0,0,0,0-0.1c0-0.1,0-0.1,0-0.2c0,0,0,0.1,0,0.1c0.1-0.2,0.1-0.3,0.2-0.5c0,0.1-0.1,0.2-0.1,0.3c0.1-0.1,0.2-0.3,0.2-0.4
				c0,0-0.1,0-0.1,0.1c0,0,0.4-0.5,0.2-0.3c0,0.1-0.1,0.1-0.1,0.2c0,0,0,0,0,0c0.1-0.1,0.2-0.2,0.2-0.3c0.2-0.2,0.4-0.5,0.7-0.7
				c0.1-0.1,0.2-0.2,0.4-0.3c0,0,0.1,0,0.1-0.1c1.1-0.8,2.3-1.4,3.6-2c4.3-1.8,8.9-2.7,13.5-3.4c-0.1,0-0.1,0-0.2,0
				c0.2,0,0.4-0.1,0.7-0.1c-0.1,0-0.3,0-0.4,0.1c7.1-0.9,14.3-1.1,21.5-0.6c1.9,0.1,3.8,0.3,5.7,0.6c-0.2,0-0.3,0-0.5-0.1
				c0.2,0,0.4,0.1,0.7,0.1c-0.1,0-0.1,0-0.2,0c4.6,0.6,9.2,1.6,13.5,3.3c1.2,0.5,2.5,1.2,3.6,2c0,0,0.1,0.1,0.1,0.1
				c0.1,0.1,0.2,0.2,0.3,0.2c0.2,0.2,0.5,0.4,0.7,0.7c0.1,0.1,0.1,0.1,0.1,0.2c0,0,0,0.1,0.1,0.1c0.1,0.2,0.2,0.3,0.3,0.5
				c0-0.1-0.1-0.2-0.1-0.3C418.8,506.8,418.9,506.9,419,507.2c-0.1-0.1-0.1-0.2-0.1-0.2C418.9,507,418.9,507.1,419,507.2
				C419,507.1,419,507.1,419,507.2L419,507.2z"/>
		</g>
		<g>
			<text transform="matrix(1 0 0 1 362.3095 546.0096)" class="st2 st3">pinecone</text>
			<text transform="matrix(1 0 0 1 367.9169 556.5956)" class="st6 st7">vector db</text>
		</g>
	</g>
	<g>
		<rect x="469" y="42" class="st16" width="97" height="49"/>
		<g>
			<text transform="matrix(1.0072 0 0 1 482.0419 65.845)" class="st2 st3">paraphrases</text>
			<text transform="matrix(1.0072 0 0 1 506.6391 76.4309)" class="st6 st7">json</text>
		</g>
	</g>
	<g>
		<rect x="453" y="366" class="st16" width="97" height="49"/>
		<g>
			<text transform="matrix(1.0072 0 0 1 466.0419 389.845)" class="st2 st3">paraphrases</text>
			<text transform="matrix(1.0072 0 0 1 490.6391 400.4309)" class="st6 st7">json</text>
		</g>
	</g>
	<path class="st17" d="M709.2,403.6c0,12.3-10,22.3-22.3,22.3s-22.3-10-22.3-22.3c0-12.3,10-22.3,22.3-22.3S709.2,391.3,709.2,403.6
		"/>
	<path class="st17" d="M729,467.9v4.9c0,1.4-1.1,2.5-2.5,2.5h-79.1c-1.4,0-2.5-1.1-2.5-2.5v-4.9c0-9.8,3.9-19.3,10.9-26.2
		c7-7,16.4-10.9,26.2-10.9h9.9c9.8,0,19.3,3.9,26.2,10.9C725.1,448.6,729,458.1,729,467.9L729,467.9z"/>
</g>
</svg>
